<?xml version="1.0" encoding="UTF-8"?>
<svg version="1.1" viewBox="0 0 2048 576" width="1280" height="1280" xmlns="http://www.w3.org/2000/svg">
<path transform="translate(0)" d="m0 0h2048v576h-2048z" fill="#FDA6B8"/>
<path transform="translate(0)" d="m0 0h2048v285h-46l-37-2-42-4-59-8-32-5-83-14-39-7-67-10-44-5-51-4-26-1h-61l-51 2-75 5-87 8-103 10-85 7-73 5-97 5-93 4-75 4-58 3-78 5-118 7-89 3-41 1h-239l-99-2z" fill="#F8C5CE"/>
<path transform="translate(879,436)" d="m0 0h116l95 2 252 3 90 2 423 2h92l72 1 29 1v129h-2048v-125l7-1 60-1 182-2 221-4 165-3 81-1 56-1 34-1z" fill="#F98895"/>
<path transform="translate(0)" d="m0 0h2048v81l-49 8-49 6-43 4-80 4h-59l-94-5-86-5-99-8-82-7-65-7-28-6-47-5h-46l-31 3-15 2-17 1-35 1-36 4-57 7-25 5-32 8-42 10-26 8-46 9-65 12-49 7-26 3h-38l-42-2-58-2-199-12-59-3-70-3-55-3-50-2-148-1z" fill="#FEFEFD"/>
<path transform="translate(1221,59)" d="m0 0h46l47 5 28 6 65 7 130 11 65 5 166 9h59l80-4 52-5 47-6 36-6h6v102l-88-11-75-8-65-6-75-6-72-5-77-4-195-8-22-1-101-3-52-2-47-2h-16l-26 4-21 4h-9l-2-1h-9l-25 5-34 11-7 2 21-6 21-7 14-3 3 1-18 7-35 11-23 6-21 4-42 5-65 7-75 10-75 11-35 5-31 4-19 3-32 3h-54l-67-3-66-5-30-2-165-15-159-16-77-6v-54h148l72 3 52 3 93 4 102 6 67 4 47 3 81 3 19 1h38l33-4 42-6 107-20 20-6 30-8 43-10 19-5 23-4 51-6 36-4 35-1 25-2 24-3z" fill="#F5D9E1"/>
<path transform="translate(1185,529)" d="m0 0h95l59 3 60 5 5 1 15 1 16 2 27 2 21 2 19 2 54 3 12 1h105l18-1 34-1 27-2 70-4 125-8 47-2 8-1 21-1h25v45h-2048v-39h24l31 2 7 1 27 1 83 5 41 2 9 1 40 1 16 1h133l16-1 39-1 28-2 128-6 202-1 109-3 89-3 45-1 11-1z" fill="#FDFDFC"/>
<path transform="translate(1847,449)" d="m0 0h9l2 1v2h-10l-2-2z" fill="#FDA6B8"/>
</svg>
